<svg width="235" height="30" viewBox="0 0 235 30" fill="none" xmlns="http://www.w3.org/2000/svg">
<path d="M69.6631 25.3246C69.6339 25.3099 69.6046 25.2953 69.5754 25.2807C67.1614 23.964 64.7621 22.6034 62.4067 21.1843C61.6605 20.7307 61.09 20.0139 60.4755 19.4579C62.0555 18.5362 63.6063 17.834 64.923 16.8099C68.3464 14.1472 68.9024 10.0069 66.1519 6.68592C62.9626 2.86748 58.9832 0.775391 54.2139 0.775391C53.3361 0.775391 52.4144 0.848541 51.478 0.994841C51.2586 1.0241 51.0099 1.05336 50.7612 1.05336C50.571 1.05336 50.3808 1.0241 50.1906 0.994841C49.8541 0.921691 49.5469 0.892429 49.2835 0.892429C48.3033 0.892429 47.762 1.37522 47.3816 2.58951C47.2061 3.11619 47.1037 3.68676 47.0744 4.2427C46.7818 8.45615 46.4599 12.6696 46.2259 16.8684C46.0503 19.9846 46.4746 23.0423 47.1183 26.0853C47.2646 26.729 47.5426 27.3874 47.8791 27.9287C48.2009 28.47 48.713 28.748 49.3128 28.748C49.4591 28.748 49.62 28.7334 49.781 28.6895C50.6295 28.5139 50.9806 27.9141 51.083 27.1241C51.1415 26.6266 51.1269 26.1146 51.1708 25.6172C51.3464 23.9493 51.5366 22.2815 51.7121 20.5552H54.7991C54.8868 20.6576 54.9453 20.6868 54.9746 20.7307C55.1063 20.9794 55.2379 21.2428 55.3696 21.4769C57.7397 25.4123 60.9583 28.2652 65.5814 29.1137C66.4007 29.2747 67.2346 29.3332 68.0831 29.3332C68.9902 29.3332 69.8826 29.26 70.775 29.2015C71.1261 29.1723 71.3895 29.0845 71.6089 28.9674C72.2234 28.6309 72.2673 27.9287 71.7845 27.0216C71.3163 26.0999 70.4678 25.7635 69.6631 25.3246ZM52.2827 16.649V4.60845C53.0434 4.72549 53.8042 4.78402 54.5503 4.94495C57.0667 5.54478 59.2758 6.71518 61.0168 8.64634C62.4798 10.2703 62.4213 11.192 60.7242 12.5818C58.2664 14.63 55.3404 15.7126 52.2827 16.649Z" fill="black"/>
<path d="M233.797 25.5731C233.504 25.3975 233.183 25.2951 232.89 25.1342C228.252 22.7202 224.039 19.7503 220.762 15.61C220.513 15.3028 220.308 14.9809 220.045 14.5859C220.586 14.1616 221.069 13.7813 221.552 13.3863C224.039 11.2942 226.584 9.23133 229.013 7.05146C229.876 6.2907 230.593 5.29586 231.222 4.30102C231.983 3.13062 231.851 1.96021 231.09 1.18482C230.666 0.76055 230.139 0.5411 229.569 0.5411C229.071 0.5411 228.545 0.716659 227.989 1.09704C226.745 1.96021 225.575 2.94042 224.448 3.96452C221.478 6.64182 218.567 9.37763 215.612 12.0696C215.363 12.289 215.041 12.4499 214.646 12.6986C214.646 11.9379 214.632 11.3966 214.646 10.826C214.69 8.73391 214.763 6.67108 214.763 4.57899C214.763 3.74508 214.632 2.8819 214.398 2.09188C214.061 0.906852 213.139 0.233868 212.071 0.219238H211.998C210.93 0.219238 210.096 0.833703 209.643 1.96021C209.482 2.38448 209.379 2.82338 209.321 3.26228C208.341 9.24596 207.858 15.2443 209.116 21.2426C209.423 22.7202 209.731 24.2271 210.184 25.6608C210.477 26.6264 211.296 27.1824 212.057 27.1824C212.101 27.1824 212.145 27.1824 212.188 27.1677C213.037 27.0946 213.666 26.4509 213.915 25.339C214.032 24.8562 214.061 24.3295 214.09 23.8467C214.163 22.8226 214.324 21.7985 214.222 20.8183C214.061 19.1212 214.895 18.1849 216.299 17.5558C216.387 17.6143 216.519 17.6582 216.577 17.746C216.797 18.0679 217.016 18.3897 217.236 18.7116C219.006 21.4328 221.23 23.7443 223.79 25.7047C225.692 27.1531 227.813 28.1918 230.139 28.7331C230.505 28.8209 230.886 28.8502 231.251 28.8502C232.173 28.8502 233.065 28.5722 233.885 28.0894C235.158 27.3579 235.099 26.3046 233.797 25.5731Z" fill="black"/>
<path d="M158.204 10.6214C158.204 8.64635 158.277 6.67129 158.204 4.71087C158.175 3.77455 158.014 2.8236 157.721 1.9458C157.706 1.87265 157.692 1.81413 157.663 1.74098C157.297 0.643724 156.302 0 155.307 0C155.219 0 155.132 8.92727e-07 155.029 0.0146309C153.844 0.146301 153.083 0.848541 152.732 1.97505C152.615 2.39932 152.542 2.83822 152.513 3.29175C152.381 4.91569 152.264 6.53962 152.132 8.17818C152.089 8.77801 152.015 9.37784 151.957 10.0655H142.623C142.579 9.94841 142.491 9.846 142.491 9.74359C142.462 8.63171 142.477 7.5052 142.418 6.37869C142.345 5.14977 142.272 3.89159 142.038 2.69193C141.804 1.47764 140.867 0.731504 139.843 0.643724C139.785 0.629094 139.726 0.629093 139.682 0.629093C138.731 0.629093 137.81 1.27281 137.385 2.37006C137.078 3.14546 136.888 3.97937 136.786 4.81328C136.317 8.60245 136.347 12.377 136.712 16.1223C136.961 18.7411 137.385 21.3452 137.941 23.9347C138.029 24.3005 138.117 24.6223 138.249 24.9003V24.9149C138.658 25.8074 139.258 26.2463 140.019 26.2463C140.077 26.2463 140.136 26.2463 140.194 26.2316C141.262 26.1438 141.935 25.2368 142.038 23.5982C142.14 21.9597 142.155 20.3211 142.213 18.6972C142.243 17.8779 142.33 17.0586 142.389 16.0784H151.986C152.162 17.8194 152.249 19.5603 152.557 21.2721C152.879 23.0862 153.317 24.9003 153.917 26.6559C154.298 27.7678 155.146 28.3091 156.053 28.3091C156.229 28.3091 156.39 28.2945 156.565 28.2506C157.546 28.0165 158.219 27.1533 158.262 25.8074V25.7196C158.321 24.3005 158.248 22.8521 158.233 21.4184C158.233 17.8194 158.219 14.2204 158.204 10.6214Z" fill="black"/>
<path d="M107.599 24.301C106.589 23.6866 105.506 23.1892 104.57 22.5015C104.351 22.326 104.131 22.1651 103.912 21.9895C101.469 20.073 99.3034 17.8346 97.4453 15.3328C97.1966 14.9817 96.9772 14.616 96.7431 14.2356C97.0211 14.0161 97.1674 13.8698 97.3576 13.7528C99.5521 12.4215 101.542 10.8707 103.341 9.12971C104.921 7.62282 106.37 5.95499 107.686 4.17013C108.184 3.49715 108.608 2.8388 108.155 2.01952C108.111 1.94637 108.067 1.87322 108.008 1.80007V1.78544C107.642 1.33191 107.16 1.17098 106.633 1.17098C106.399 1.17098 106.165 1.20024 105.916 1.25876C105.214 1.43432 104.497 1.68303 103.897 2.07804C101.571 3.67271 99.2887 5.28201 97.0211 6.94984C95.2655 8.25191 93.5976 9.65639 91.6957 11.1487C91.6957 8.86637 91.7396 6.90595 91.6665 4.94553C91.6372 4.0531 91.5202 3.11677 91.1691 2.31212C90.7448 1.34654 89.8963 0.849121 89.0331 0.849121C88.2577 0.849121 87.4677 1.24413 86.9702 2.06341C86.5899 2.66324 86.3558 3.40937 86.268 4.11161C85.9023 7.00836 85.3756 9.91973 85.3463 12.8311C85.3171 16.0204 85.6974 19.2244 86.0047 22.4138C86.0778 23.2769 86.4728 24.1547 86.8678 24.9448C87.1897 25.5885 87.7749 25.9103 88.4771 25.9103C88.6088 25.9103 88.7405 25.8957 88.8721 25.8811C89.6914 25.7494 90.1742 25.2227 90.3351 24.4327C90.4814 23.7158 90.5692 22.9843 90.6277 22.2675C90.7448 20.863 90.8033 19.4585 90.8765 18.054C90.9057 17.4688 90.9935 16.9129 91.9006 16.8982C92.1639 17.381 92.4419 17.9224 92.7491 18.449C95.2216 22.6917 98.3085 26.2322 103.166 27.7976C104.278 28.1634 105.389 28.3682 106.501 28.3682C107.321 28.3682 108.111 28.2511 108.945 28.0317C108.959 28.0317 108.974 28.0171 108.988 28.0171C110.393 27.6221 110.642 26.7004 109.632 25.6616C109.105 25.1203 108.315 24.7399 107.599 24.301Z" fill="black"/>
<path d="M30.0595 1.05317C29.9863 1.03854 29.9424 1.00928 29.8693 0.980019C29.0646 0.760568 28.2161 0.59964 27.3822 0.57038C23.6222 0.46797 19.8477 0.43871 16.0732 0.35093C15.2978 0.3363 14.5077 0.233887 13.7324 0.233887C13.6299 0.233887 13.5129 0.233888 13.4105 0.248518C12.401 0.277778 11.4208 0.49723 10.4113 0.57038C8.56796 0.70205 6.69531 0.73131 4.85193 0.93613C3.93024 1.02391 2.97929 1.30188 2.11612 1.68226C1.25295 2.06264 0.740895 2.83803 0.814045 3.86213C0.887195 4.88624 1.53092 5.52996 2.42335 5.82256C3.21337 6.0859 4.06191 6.23219 4.89582 6.30535C6.95865 6.48091 9.02149 6.58331 11.3184 6.72961C11.216 8.92412 11.1428 10.9431 11.0404 12.962C10.821 16.7804 11.3477 20.4965 12.3425 24.154C12.5181 24.7538 12.7229 25.339 13.0009 25.8803C13.3812 26.5972 13.9811 26.9922 14.7711 26.9922C14.8735 26.9922 14.9905 26.9776 15.1076 26.9629C15.9415 26.8459 16.4682 26.2461 16.6584 25.2073C16.7022 24.9294 16.6876 24.6368 16.7169 24.3588C17.2436 19.1359 17.2289 13.8983 17.0826 8.66078C17.068 8.00243 17.0826 7.32945 17.0826 6.64184C17.6532 6.53943 18.1067 6.46628 18.5456 6.39313C22.1885 5.88108 25.8167 5.41292 29.4596 4.88624C29.4889 4.88624 29.5328 4.8716 29.5767 4.8716C30.8495 4.69604 31.4786 4.11084 31.581 3.17452C31.6541 2.26746 31.1274 1.43355 30.0595 1.05317Z" fill="black"/>
<path d="M132.806 19.9114C132.733 19.9114 132.674 19.926 132.601 19.926C132.426 19.9406 132.25 19.9699 132.075 20.0138C131.592 20.1162 131.124 20.2917 130.641 20.438C128.315 21.1695 125.959 21.6084 123.472 21.7986C121.6 21.4475 119.668 21.2866 117.884 20.6868C114.826 19.6773 113.29 16.722 113.904 13.5619C114.694 9.39238 119.273 5.92506 123.516 5.92506C124.013 5.92506 124.526 5.98359 125.008 6.086C125.199 6.11526 125.389 6.14451 125.55 6.14451C126.662 6.14451 127.305 5.32524 126.925 4.1402C126.72 3.54037 126.296 2.91128 125.784 2.54553C125.169 2.10663 124.379 1.74088 123.633 1.63847C122.872 1.52143 122.126 1.47754 121.395 1.47754C118.279 1.47754 115.513 2.42849 113.29 3.97927C110.598 5.85192 108.696 8.60236 107.891 11.6454C107.877 11.7039 107.862 11.7624 107.847 11.821C107.233 14.2788 107.335 16.6342 108.052 18.7263C109.149 21.901 111.666 24.432 115.221 25.6171C115.543 25.7341 115.879 25.8219 116.23 25.9097C118.03 26.3632 119.844 26.5973 121.658 26.5973C123.194 26.5973 124.73 26.4217 126.252 26.056C128.198 25.5878 130.114 24.8709 131.972 24.1102C132.236 23.9931 132.484 23.8761 132.704 23.7005C133.391 23.2324 133.903 22.5448 134.079 21.6231C134.284 20.6282 133.757 19.9114 132.806 19.9114Z" fill="black"/>
<path d="M191.443 21.9889C190.682 21.2281 189.746 20.8916 188.707 20.8331C187.712 20.7892 186.718 20.7453 185.723 20.7453C185.372 20.7453 185.021 20.76 184.669 20.76C182.811 20.8331 180.968 21.0087 179.066 21.1403C179.066 19.1799 179.081 17.3365 179.066 15.5078C179.037 12.1868 179.037 8.88039 178.92 5.55938C178.891 4.75473 178.583 3.90619 178.232 3.16006C177.866 2.3554 177.164 1.9165 176.257 1.9165C176.184 1.9165 176.111 1.9165 176.038 1.93113C175.087 2.01891 174.443 2.5456 174.136 3.39414C173.858 4.18416 173.668 5.01807 173.58 5.85198C173.068 10.8993 173.068 15.976 173.58 21.0233C173.682 22.0767 173.931 23.13 174.18 24.1541C174.575 25.7634 175.701 26.612 177.267 26.8753C177.618 26.9338 177.969 26.9777 178.32 26.9777C178.466 26.9777 178.627 26.9631 178.773 26.9485C182.636 26.5242 186.484 26.0707 190.331 25.6025C191.077 25.5147 191.633 25.1343 191.926 24.476C191.955 24.3736 191.999 24.2712 192.028 24.1688C192.248 23.3787 192.043 22.6619 191.487 22.062L191.443 21.9889Z" fill="black"/>
<path d="M40.3147 23.2178C40.3 20.1747 40.3147 17.1317 40.3147 14.0887H40.3439C40.3439 10.8115 40.3585 7.54904 40.3293 4.28655C40.3293 3.67209 40.3 3.043 40.1537 2.44317C39.8465 1.22887 38.9102 0.409594 37.7837 0.351074H37.6374C37.1253 0.351074 36.6718 0.468114 36.2768 0.716825C35.8086 0.965535 35.4575 1.37517 35.1941 1.90185C34.8869 2.5602 34.6236 3.27708 34.5797 3.99395C34.5065 5.3838 34.4188 6.78828 34.3456 8.1635C34.17 10.8701 34.053 13.5912 34.0676 16.2978C34.0823 19.2823 34.8869 22.1937 35.8818 25.0319C36.2036 25.9536 36.6425 26.7875 37.5203 27.3142C37.9007 27.5336 38.2811 27.6653 38.6761 27.6653C39.0418 27.6653 39.4076 27.5483 39.7587 27.3142C40.4317 26.8607 40.6511 26.2316 40.4902 25.4123C40.3439 24.6808 40.3293 23.9493 40.3147 23.2178Z" fill="black"/>
<path d="M200.938 1.75537C200.514 0.745897 199.665 0.20459 198.685 0.20459C198.583 0.20459 198.48 0.219216 198.378 0.219216C197.251 0.336256 196.505 1.00924 196.213 2.07723C195.993 2.92577 195.876 3.84746 195.847 4.7399C195.774 7.43182 195.788 10.1384 195.774 12.8303C195.759 15.3028 195.978 17.7313 196.33 20.1453C196.476 21.1694 196.651 22.1935 196.856 23.203C196.929 23.5687 197.032 23.9491 197.163 24.3149C197.324 24.8123 197.544 25.2804 197.778 25.7193C198.144 26.3777 198.744 26.7288 199.475 26.7288C199.621 26.7288 199.782 26.6996 199.943 26.6849C200.792 26.524 201.304 25.9242 201.494 24.9147C201.523 24.6952 201.523 24.4612 201.538 24.2417C201.67 21.3157 201.801 18.4043 201.933 15.4783H202.108C201.933 11.7623 201.801 8.06091 201.582 4.35951C201.523 3.48171 201.275 2.57465 200.938 1.75537Z" fill="black"/>
<path d="M77.1973 1.17039C77.0803 1.15576 76.9779 1.15576 76.8609 1.15576C75.8368 1.15576 75.0175 1.60929 74.5201 2.54561C74.1982 3.1747 73.9641 3.9062 73.8617 4.60844C73.2472 9.3632 72.9985 14.1326 73.5545 18.902C73.6715 19.97 73.8617 21.038 74.0958 22.0767C74.2128 22.6765 74.3591 23.2764 74.5054 23.8616C74.6956 24.5784 75.1638 25.2807 75.6466 25.8805C75.9977 26.3194 76.4658 26.5535 76.9925 26.5827C77.0364 26.5974 77.0657 26.5974 77.1096 26.5974C77.329 26.5974 77.5631 26.5681 77.7825 26.495C78.6018 26.217 79.1285 25.6318 79.2163 24.7832C79.3041 23.8908 79.348 22.9837 79.3626 22.0913C79.3918 19.4579 79.3626 16.7952 79.3626 14.1618H79.4796C79.5967 11.2358 79.7283 8.32447 79.7869 5.39847C79.8161 4.62308 79.7283 3.8038 79.5235 3.05766C79.2017 1.94578 78.397 1.28743 77.1973 1.17039Z" fill="black"/>
<path d="M167.289 2.37026C166.952 1.49246 166.177 0.965783 165.197 0.936523H165.124C164.173 0.936523 163.441 1.40468 163.032 2.23859C163.032 2.25322 163.017 2.25322 163.017 2.26785C162.695 2.91157 162.505 3.62844 162.373 4.34532C161.261 10.9873 161.993 17.5709 163.134 24.1251C163.178 24.4031 163.266 24.681 163.383 24.959C163.5 25.2662 163.646 25.5588 163.792 25.8368C164.158 26.4805 164.729 26.8902 165.446 26.8902C165.548 26.8902 165.65 26.8755 165.753 26.8755C166.616 26.7439 167.216 26.2172 167.406 25.3687C167.596 24.447 167.728 23.4814 167.728 22.5451C167.757 19.6776 167.743 16.8101 167.743 13.9426H167.801C167.801 10.9142 167.83 7.87115 167.786 4.84274C167.757 4.00882 167.596 3.14565 167.289 2.37026Z" fill="black"/>
</svg>
